<?xml version="1.0" encoding="UTF-8" standalone="no"?>
<!DOCTYPE svg PUBLIC "-//W3C//DTD SVG 20010904//EN"
              "http://www.w3.org/TR/2001/REC-SVG-20010904/DTD/svg10.dtd">

<svg xmlns="http://www.w3.org/2000/svg"
     width="1.38889in" height="1.38889in"
     viewBox="0 0 100 100">
  <path id="Unnamed #1"
        fill="white" stroke="none" stroke-width="1"
        d="M 10.00,75.00
           C 10.00,75.00 2.00,82.00 10.00,90.00
             18.00,98.00 25.00,90.00 25.00,90.00
             25.00,90.00 50.00,65.39 50.00,65.39
             50.00,65.39 75.00,90.00 75.00,90.00
             75.00,90.00 82.00,98.00 90.00,90.00
             98.00,82.00 90.00,75.00 90.00,75.00
             90.00,75.00 65.30,50.30 65.30,50.30
             65.30,50.30 90.00,26.00 90.00,26.00
             90.00,26.00 98.00,18.00 90.00,10.00
             82.00,2.00 75.00,10.00 75.00,10.00
             75.00,10.00 50.00,34.99 50.00,34.99
             50.00,34.99 25.00,10.00 25.00,10.00
             25.00,10.00 18.00,2.00 10.00,10.00
             2.00,18.00 10.00,26.00 10.00,26.00
             10.00,26.00 34.68,50.24 34.68,50.24
             34.68,50.24 10.00,75.00 10.00,75.00 Z" />
</svg>
